<?xml version="1.0" standalone="no"?>
<!DOCTYPE svg PUBLIC "-//W3C//DTD SVG 20010904//EN"
 "http://www.w3.org/TR/2001/REC-SVG-20010904/DTD/svg10.dtd">
<svg version="1.0" xmlns="http://www.w3.org/2000/svg"
 width="450.000000pt" height="450.000000pt" viewBox="0 0 450.000000 450.000000"
 preserveAspectRatio="xMidYMid meet">
<metadata>
Created by potrace 1.14, written by Peter Selinger 2001-2017
</metadata>
<g transform="translate(0.000000,450.000000) scale(0.100000,-0.100000)"
fill="#000000" stroke="none">
<path d="M3267 3469 c-81 -4 -153 -12 -160 -17 -7 -5 -45 -13 -84 -17 -40 -4
-70 -11 -67 -16 3 -5 -5 -9 -17 -9 -34 0 -140 -39 -174 -65 -16 -12 -49 -32
-72 -44 -47 -24 -50 -28 -27 -45 13 -10 7 -18 -46 -55 -42 -30 -60 -48 -55
-58 3 -9 0 -22 -6 -29 -12 -15 1 -19 16 -6 19 16 65 32 65 22 0 -5 -20 -18
-44 -28 -24 -11 -46 -25 -50 -31 -4 -6 17 1 46 14 29 14 62 25 73 25 17 -1 16
-4 -10 -26 l-30 -25 40 7 40 7 -19 -21 c-16 -19 -17 -23 -3 -36 14 -14 22 -9
79 47 70 71 99 91 141 101 20 5 27 3 22 -5 -6 -8 -2 -8 14 0 14 8 21 8 21 1 0
-6 20 -8 52 -5 28 3 61 2 72 -1 18 -6 18 -7 -5 -20 l-24 -13 25 -1 c23 -1 23
-2 5 -10 -19 -8 -19 -9 4 -16 23 -7 24 -8 5 -15 -19 -7 -19 -8 1 -8 15 -1 16
-4 7 -10 -16 -10 -26 -81 -12 -81 6 0 8 5 5 10 -3 6 -1 10 4 10 6 0 11 -3 12
-7 0 -5 2 -18 5 -31 2 -13 0 -21 -4 -18 -4 2 -8 -12 -7 -31 0 -20 6 -38 13
-41 6 -2 12 2 12 9 0 7 2 10 5 7 8 -8 -6 -39 -15 -33 -5 3 -6 -4 -3 -15 3 -11
12 -20 20 -20 9 0 11 -5 7 -12 -5 -9 -3 -9 9 1 9 7 15 16 13 20 -3 4 4 7 14 7
17 0 17 -1 -1 -25 -12 -15 -16 -28 -10 -34 5 -5 7 -17 4 -26 -4 -12 -1 -10 11
4 10 11 15 14 11 8 -3 -7 -1 -13 6 -13 16 0 3 -59 -18 -79 -14 -13 -32 -15
-112 -9 -53 3 -105 9 -116 12 -11 3 -65 15 -120 26 -55 12 -110 23 -122 26
-16 3 -21 0 -17 -10 3 -8 0 -17 -7 -22 -7 -4 -15 -2 -17 4 -2 7 -8 12 -13 12
-6 0 -7 -5 -3 -12 5 -7 0 -9 -14 -6 -17 5 -22 0 -28 -26 -4 -17 -7 -35 -5 -41
8 -29 -14 -129 -34 -159 -13 -19 -18 -33 -12 -30 29 11 56 71 63 137 4 37 11
67 15 67 14 0 11 28 -3 33 -7 3 -4 6 8 6 12 1 84 -17 160 -40 76 -23 195 -50
264 -60 120 -18 165 -26 165 -29 0 -2 24 -6 110 -18 54 -7 78 -6 103 4 37 15
41 29 10 38 -32 8 -11 26 36 30 31 3 39 0 47 -18 6 -12 27 -30 47 -41 52 -28
85 -94 79 -160 -3 -40 -14 -65 -54 -125 -81 -118 -139 -174 -207 -199 -55 -20
-77 -21 -120 -5 -22 8 -20 -8 4 -34 26 -28 81 -29 124 -3 17 10 42 22 56 26
29 9 85 65 95 94 5 17 12 20 38 15 38 -6 42 -9 43 -37 1 -12 9 -53 19 -92 9
-38 19 -79 22 -90 6 -27 9 -37 18 -60 23 -61 31 -75 43 -75 7 0 20 -17 29 -37
10 -21 23 -45 31 -54 12 -15 4 -16 -95 -12 -193 9 -299 -27 -524 -179 -145
-98 -239 -153 -239 -141 0 4 -4 3 -8 -3 -4 -6 -32 -22 -62 -37 -75 -36 -42
-34 45 3 39 16 62 23 51 15 -19 -14 -168 -71 -208 -79 -214 -42 -357 -84 -392
-114 -20 -16 -20 -16 -6 2 21 27 82 52 186 77 101 24 110 26 208 44 16 4 37
11 45 16 13 8 10 9 -9 5 -14 -3 -95 -19 -179 -36 -166 -34 -213 -49 -247 -81
l-22 -20 -24 33 c-14 18 -34 49 -44 68 -10 19 -47 68 -81 109 -54 63 -63 80
-63 113 0 68 -98 238 -137 238 -7 0 -13 5 -13 10 0 6 -16 10 -35 10 -30 0 -35
4 -40 28 -12 54 -17 57 -95 55 -94 -3 -275 -38 -370 -71 -62 -22 -76 -31 -78
-51 -5 -31 5 -39 63 -54 62 -16 79 -41 45 -67 -13 -10 -29 -15 -35 -12 -5 4
-30 12 -54 18 -39 10 -44 10 -48 -7 -7 -24 -57 -26 -79 -4 -9 8 -33 15 -56 15
-31 0 -41 -4 -45 -20 -3 -11 -10 -17 -16 -13 -6 4 -8 0 -4 -10 9 -23 -5 -21
-34 4 -22 19 -32 20 -99 14 -41 -4 -84 -9 -95 -12 -18 -4 -34 -6 -95 -11 -11
-1 -20 -7 -20 -13 0 -13 -25 -39 -39 -39 -6 0 -18 -8 -28 -19 -23 -23 -50 -30
-143 -32 -59 -1 -79 -6 -93 -20 -10 -11 -32 -19 -50 -20 -32 -1 -69 -5 -120
-14 -17 -3 -26 -1 -22 5 3 6 1 10 -5 10 -6 0 -9 4 -6 9 8 12 -3 41 -15 41 -5
0 -9 -7 -9 -15 0 -8 -5 -15 -11 -15 -5 0 -7 5 -4 10 3 6 2 10 -3 10 -5 0 -17
-16 -27 -36 -20 -42 -15 -134 16 -329 29 -183 49 -235 86 -221 8 3 18 6 23 6
5 0 11 8 15 19 4 15 23 21 95 30 49 7 102 10 117 7 16 -4 71 0 123 8 85 13 97
13 113 -2 9 -8 15 -23 12 -32 -3 -10 1 -23 9 -29 25 -21 84 8 156 75 68 63
135 107 183 118 32 8 47 38 47 98 0 38 -6 46 -99 137 -54 53 -108 112 -120
131 -48 80 -10 129 76 97 25 -9 50 -14 57 -10 6 3 8 3 4 -2 -4 -4 12 -20 36
-36 24 -15 63 -52 86 -82 31 -42 74 -77 173 -143 196 -130 238 -165 308 -254
62 -79 86 -94 82 -51 -2 11 2 21 8 21 5 0 8 4 5 9 -3 5 2 8 12 7 9 0 16 5 14
12 -1 6 6 12 15 12 14 0 15 2 4 9 -19 12 -4 33 22 29 12 -1 27 0 32 4 6 3 30
8 55 12 25 4 51 10 58 15 18 11 20 95 4 201 -24 159 -25 180 -14 180 7 0 20
-12 29 -27 15 -22 18 -46 16 -133 -2 -118 4 -133 95 -233 28 -31 42 -54 39
-65 -21 -64 -60 -158 -81 -189 -29 -46 -91 -103 -111 -103 -8 0 -18 0 -22 0
-5 0 -7 20 -6 44 2 28 -2 48 -12 56 -19 16 -37 3 -33 -23 2 -16 -2 -22 -15
-21 -15 2 -17 -4 -13 -35 7 -51 26 -101 39 -102 7 -1 18 -1 25 0 6 1 12 -3 12
-9 0 -5 -4 -10 -8 -10 -4 0 -6 -15 -4 -34 3 -27 9 -35 30 -39 36 -7 43 -1 32
28 -8 20 -6 24 13 28 16 3 13 5 -10 6 -17 0 -34 -5 -36 -11 -3 -7 -6 1 -6 17
0 17 3 25 7 20 4 -6 18 -11 32 -12 14 -1 19 1 13 4 -7 3 -13 9 -13 15 0 6 7 7
16 4 8 -3 12 -2 9 4 -3 5 7 16 23 24 57 30 103 114 127 233 7 33 25 55 25 30
0 -21 43 -57 69 -57 12 0 29 -7 37 -15 8 -8 21 -12 29 -9 15 6 35 55 35 86 0
13 15 25 46 38 54 24 87 25 104 5 14 -16 164 -105 179 -105 5 0 11 -5 13 -10
4 -14 58 26 138 103 42 41 94 77 149 105 107 54 145 55 238 7 37 -19 75 -35
84 -35 9 0 28 -11 43 -25 15 -14 31 -25 37 -25 5 0 25 -16 43 -35 19 -19 39
-35 45 -35 6 0 11 -6 11 -14 0 -7 9 -16 21 -19 12 -3 18 -10 15 -16 -4 -5 3
-12 14 -16 11 -3 20 -13 20 -21 0 -8 5 -14 10 -14 6 0 10 -9 10 -20 0 -11 4
-20 9 -20 5 0 11 -9 14 -20 4 -14 14 -20 34 -20 l28 -1 -25 -15 -25 -15 34 5
c28 5 33 3 29 -12 -3 -10 1 -23 8 -30 8 -7 17 -31 20 -52 4 -22 10 -40 14 -40
5 0 6 -9 3 -20 -4 -14 0 -20 11 -20 9 0 16 -4 16 -10 0 -5 -4 -10 -10 -10 -5
0 -10 -4 -10 -9 0 -6 15 -11 33 -13 l32 -3 -30 -18 c-16 -9 -23 -17 -15 -16
41 4 51 -1 45 -21 -4 -12 -2 -20 5 -20 7 0 9 -8 5 -20 -5 -14 -2 -20 9 -20 18
0 21 -16 5 -25 -6 -5 -4 -12 8 -20 15 -11 15 -15 4 -29 -12 -14 -10 -16 9 -16
22 0 23 -1 5 -20 -18 -19 -17 -20 5 -20 22 0 22 -1 6 -19 -16 -17 -16 -19 6
-24 18 -5 20 -9 10 -19 -10 -10 -8 -14 9 -23 20 -11 20 -12 -13 -28 l-33 -17
28 0 c33 0 35 -12 5 -33 -23 -15 -23 -15 -2 -10 34 8 39 -15 7 -29 l-28 -12
28 -4 c20 -2 27 -8 23 -18 -5 -12 36 -14 269 -14 l275 0 0 170 c0 162 -1 170
-18 159 -10 -6 -24 -24 -31 -40 -25 -56 -43 -36 -102 112 -11 30 -22 59 -23
64 -2 11 -41 95 -122 261 -103 212 -198 330 -354 438 -116 81 -256 137 -345
137 -51 0 -142 -17 -160 -31 -16 -13 -85 -29 -85 -21 0 14 72 58 150 94 114
52 120 71 13 37 -109 -34 -210 -75 -362 -144 -64 -30 -202 -84 -307 -121 -104
-37 -228 -86 -276 -109 -47 -22 -82 -36 -77 -30 15 19 147 79 244 112 149 51
343 127 471 185 151 69 297 124 394 149 106 28 257 34 349 14 41 -9 76 -14 78
-12 11 11 -11 76 -27 81 -10 3 -20 20 -24 37 -9 46 -8 51 15 45 15 -4 19 -1
17 11 -12 63 -297 81 -458 29 -80 -26 -127 -51 -285 -152 -104 -67 -175 -108
-175 -102 0 2 28 21 63 42 34 21 105 67 157 101 127 82 187 112 278 135 92 23
237 25 337 4 83 -18 75 -17 75 -6 0 5 -9 13 -21 16 -28 9 -21 45 25 135 18 36
39 83 45 103 7 20 16 35 21 32 4 -3 7 3 6 13 0 10 6 17 16 17 10 0 29 16 43
35 14 19 34 38 43 42 43 17 148 4 172 -22 3 -3 19 -12 35 -20 24 -13 32 -25
40 -66 6 -28 22 -67 38 -87 15 -19 27 -40 27 -45 0 -14 25 -22 66 -22 l34 0 0
380 c0 209 -4 380 -8 380 -17 0 -42 -37 -50 -76 -6 -27 -13 -39 -25 -38 -9 1
-17 -2 -17 -7 0 -5 -12 -9 -26 -9 -23 0 -72 -31 -128 -82 -10 -9 -38 -24 -62
-32 -34 -11 -43 -12 -47 -1 -6 13 14 79 26 91 4 4 7 20 7 35 0 15 5 31 10 34
6 3 10 22 10 41 0 20 4 43 10 53 13 26 19 90 8 97 -5 4 -5 10 0 17 5 7 10 32
11 55 0 24 3 47 5 50 2 4 -1 18 -6 32 -6 14 -12 43 -14 64 -2 22 -8 44 -13 50
-5 6 -12 38 -15 71 -3 36 -12 64 -21 71 -8 6 -15 25 -15 42 0 17 -5 34 -10 37
-6 4 -7 11 -4 17 4 6 0 14 -7 19 -8 5 -17 3 -21 -4 -5 -8 -8 -4 -8 10 0 26
-28 63 -47 63 -6 0 -17 8 -22 18 -8 13 -11 14 -11 2 -1 -8 -17 17 -37 55 -20
39 -38 64 -41 57 -3 -10 -11 -7 -28 9 -13 12 -24 19 -24 15 0 -4 -12 1 -27 12
-16 11 -39 23 -51 27 -22 6 -23 5 -12 -15 14 -26 8 -36 -10 -15 -7 8 -19 15
-28 15 -8 0 -23 7 -33 16 -12 11 -37 16 -81 16 -34 0 -88 6 -119 14 -31 8 -67
13 -80 12 -13 0 -91 -4 -172 -9z m-46 -696 c13 -16 12 -17 -3 -4 -17 13 -22
21 -14 21 2 0 10 -8 17 -17z m12 -66 c3 -8 2 -20 -3 -26 -5 -9 -7 -4 -7 13 0
29 2 32 10 13z m-1273 -977 c-8 -5 -31 -10 -50 -10 -26 0 -31 3 -20 10 8 5 31
10 50 10 26 0 31 -3 20 -10z m-370 -65 c0 -8 -9 -15 -20 -15 -11 0 -20 7 -20
15 0 8 9 15 20 15 11 0 20 -7 20 -15z m-55 -5 c3 -5 1 -10 -4 -10 -6 0 -11 5
-11 10 0 6 2 10 4 10 3 0 8 -4 11 -10z m485 -54 c0 -2 3 -12 7 -21 5 -15 3
-16 -15 -6 -25 13 -29 31 -7 31 8 0 15 -2 15 -4z m-306 -21 c-4 -9 -19 -15
-35 -15 -19 0 -29 5 -29 15 0 10 11 15 35 15 26 0 33 -3 29 -15z m-139 -15 c3
-5 1 -10 -4 -10 -6 0 -11 5 -11 10 0 6 2 10 4 10 3 0 8 -4 11 -10z m320 -29
c6 -11 -33 -26 -43 -16 -4 3 0 10 8 15 19 12 27 12 35 1z m-384 -58 c1 -21 7
-65 14 -107 9 -53 -9 -16 -22 42 -15 72 -15 82 -3 82 6 0 10 -8 11 -17z m-101
-68 c0 -8 -9 -15 -20 -15 -17 0 -19 2 -8 15 17 19 28 19 28 0z m-85 -4 c-3 -5
5 -12 17 -14 20 -4 19 -4 -4 -6 -27 -1 -35 8 -21 22 9 10 15 8 8 -2z m890
-101 c14 -22 29 -40 35 -40 5 0 16 -15 25 -34 9 -18 27 -44 41 -57 26 -25 30
-60 18 -178 -6 -56 -9 -62 -28 -59 -16 2 -22 12 -26 43 -6 41 -33 93 -68 131
-40 42 -55 88 -60 173 -5 82 -4 83 17 72 12 -7 33 -30 46 -51z m705 -44 c0 -3
-5 -17 -10 -31 -8 -20 -15 -26 -30 -22 -13 3 -20 0 -20 -9 0 -8 -8 -14 -18
-14 -11 0 -33 -7 -50 -16 -34 -16 -52 -12 -52 12 0 8 -5 12 -10 9 -6 -4 -8
-15 -5 -26 6 -18 -2 -24 -32 -20 -6 1 -14 -3 -18 -9 -15 -24 -27 -8 -20 28 7
42 32 74 43 56 9 -14 40 -12 71 5 13 7 34 11 47 8 13 -2 24 0 24 5 0 5 10 13
23 18 24 9 57 13 57 6z m-763 -103 c31 -53 26 -73 -9 -39 -28 29 -39 65 -30
99 6 21 6 21 10 2 2 -11 15 -39 29 -62z m493 45 c-1 -46 -14 -87 -31 -91 -15
-4 -17 0 -12 27 9 47 21 76 33 76 5 0 10 -6 10 -12z m-54 -58 c-10 -51 -28
-64 -54 -38 -9 9 -12 7 -12 -10 0 -13 -6 -22 -15 -22 -16 0 -19 19 -9 68 6 30
35 53 42 33 5 -16 22 -13 22 4 0 8 8 15 18 15 17 0 18 -5 8 -50z m474 42 c0
-14 -52 -58 -112 -96 -32 -20 -70 -52 -85 -72 -15 -20 -37 -48 -49 -62 l-21
-25 -21 21 c-31 31 -76 52 -127 59 -40 5 -43 7 -28 18 10 7 70 31 133 53 63
22 133 48 155 58 50 21 137 53 148 54 4 0 7 -4 7 -8z m-1250 -252 c0 -5 -2
-10 -4 -10 -3 0 -8 5 -11 10 -3 6 -1 10 4 10 6 0 11 -4 11 -10z m162 -212 c-7
-7 -8 -16 -3 -22 6 -7 1 -12 -16 -13 -15 0 -22 2 -16 5 5 4 12 15 16 25 3 9
12 17 19 17 9 0 9 -3 0 -12z"/>
<path d="M2776 1203 c-6 -14 -5 -15 5 -6 7 7 10 15 7 18 -3 3 -9 -2 -12 -12z"/>
<path d="M2608 2783 c-24 -6 -23 -19 1 -26 19 -5 41 9 41 25 0 8 -13 9 -42 1z"/>
<path d="M2635 2730 c3 -5 10 -10 16 -10 5 0 9 5 9 10 0 6 -7 10 -16 10 -8 0
-12 -4 -9 -10z"/>
<path d="M2544 2695 c-9 -14 -14 -28 -11 -31 3 -3 8 4 12 16 4 12 16 25 28 30
17 7 18 9 5 9 -10 1 -25 -10 -34 -24z"/>
<path d="M2661 2609 c0 -13 3 -18 6 -11 2 6 11 12 19 12 9 0 12 -4 9 -10 -3
-5 3 -10 14 -10 19 0 38 17 28 26 -2 3 -21 8 -41 11 -33 5 -36 4 -35 -18z"/>
<path d="M2502 2505 c0 -16 2 -22 5 -12 2 9 2 23 0 30 -3 6 -5 -1 -5 -18z"/>
<path d="M3466 2504 c-28 -16 -29 -17 -23 -82 4 -36 11 -70 17 -76 5 -5 10
-17 10 -25 0 -11 -4 -11 -20 4 -25 23 -44 15 -73 -32 -13 -21 -32 -44 -41 -52
-9 -7 -16 -20 -16 -27 0 -22 29 -16 63 12 18 16 38 24 50 20 33 -8 70 11 64
34 -3 11 -1 20 4 20 17 0 9 36 -16 70 -30 41 -31 46 -6 53 14 3 21 15 23 38 3
33 4 34 43 31 31 -3 37 -1 28 9 -18 18 -75 20 -107 3z"/>
<path d="M2113 2394 c-40 -40 -51 -46 -121 -59 -42 -8 -78 -15 -79 -15 -2 0
-3 -6 -3 -14 0 -8 -7 -16 -15 -20 -8 -3 -12 -12 -9 -20 3 -8 -1 -25 -10 -37
-11 -17 -13 -26 -4 -36 8 -10 2 -13 -34 -13 -35 0 -50 6 -70 28 -15 15 -30 41
-33 57 -4 17 -9 37 -12 45 -4 8 -7 22 -7 30 -1 13 -24 15 -141 16 -139 1 -175
-6 -175 -34 0 -8 -6 -12 -12 -10 -19 7 -54 -42 -38 -52 10 -6 9 -9 -1 -13 -10
-4 -10 -6 -1 -6 6 -1 12 -7 12 -14 0 -14 -147 -16 -170 -2 -29 18 -357 74
-434 75 -26 0 -75 7 -108 16 -63 16 -113 12 -121 -10 -7 -19 -99 -28 -185 -18
-60 7 -77 5 -98 -9 -14 -9 -34 -15 -44 -12 -12 3 -20 -2 -25 -17 -8 -26 -53
-46 -69 -30 -16 16 -23 12 -40 -24 -18 -38 -14 -59 18 -94 25 -28 99 -62 135
-62 239 -1 441 -9 462 -17 15 -7 52 -9 86 -6 60 6 133 -10 133 -28 0 -12 37
-12 45 1 3 5 41 9 83 9 42 -1 115 6 161 16 74 15 163 16 246 4 6 -1 55 2 110
6 121 9 100 10 215 -5 70 -9 105 -19 131 -36 35 -24 40 -25 223 -23 181 2 188
3 205 25 10 12 28 24 42 26 15 2 25 11 27 23 1 11 14 45 29 76 l26 57 -48 45
c-50 48 -50 49 -30 122 5 17 -8 25 -102 62 l-107 42 -43 -45z m-737 -240 c-3
-8 -10 -14 -16 -14 -17 0 -23 28 -8 43 11 13 14 13 21 0 5 -8 6 -21 3 -29z"/>
<path d="M2417 2236 c-7 -19 24 -46 53 -46 23 0 23 0 4 21 -28 31 -51 41 -57
25z"/>
<path d="M2516 2219 c-11 -11 -18 -21 -15 -23 7 -7 41 22 38 32 -2 5 -13 1
-23 -9z"/>
<path d="M2443 2023 c-22 -4 -31 -27 -15 -36 4 -3 29 -8 56 -12 39 -6 48 -5
44 6 -7 20 -60 46 -85 42z"/>
<path d="M2859 1655 c-3 -2 -39 -6 -80 -9 -40 -2 -105 -10 -144 -16 -38 -6
-78 -11 -87 -11 -10 0 -18 -5 -18 -10 0 -6 -4 -8 -9 -5 -13 8 -41 -4 -41 -18
0 -21 64 -47 164 -67 92 -18 175 -53 191 -79 3 -6 13 -10 22 -10 13 0 15 9 10
58 -3 31 -9 73 -13 93 -4 26 -2 40 10 52 9 8 16 18 16 21 0 7 -15 8 -21 1z"/>
<path d="M3600 1427 l-55 -11 55 -7 c30 -4 87 -8 125 -8 84 -2 192 -25 217
-48 20 -18 23 -7 9 30 -7 18 -22 27 -58 37 -67 17 -228 21 -293 7z"/>
<path d="M3990 1302 c0 -4 26 -34 59 -66 53 -52 62 -57 89 -51 40 8 72 -9 72
-39 0 -13 11 -40 25 -60 14 -20 25 -42 25 -48 0 -6 16 -36 36 -66 38 -57 83
-170 84 -210 0 -12 13 -60 29 -105 16 -46 31 -101 34 -123 3 -21 17 -66 31
-99 l25 -60 1 267 0 268 -57 62 c-153 167 -208 213 -365 297 -81 43 -88 46
-88 33z"/>
<path d="M2002 951 c-10 -29 -42 -44 -42 -20 0 5 -4 7 -10 4 -18 -11 -11 -61
13 -88 16 -19 32 -27 55 -27 l32 0 -1 63 c-1 34 1 69 3 77 2 9 -6 16 -18 18
-17 2 -24 -4 -32 -27z"/>
<path d="M1820 906 c0 -2 8 -10 18 -17 15 -13 16 -12 3 4 -13 16 -21 21 -21
13z"/>
<path d="M4250 891 c0 -9 44 -41 57 -41 4 0 -3 7 -15 16 -12 8 -20 20 -17 25
4 5 -1 9 -9 9 -9 0 -16 -4 -16 -9z"/>
<path d="M1882 839 c12 -16 24 -25 26 -19 4 12 -26 50 -40 50 -5 0 2 -14 14
-31z"/>
<path d="M4290 831 c0 -9 30 -24 36 -18 2 1 -6 8 -16 15 -11 7 -20 8 -20 3z"/>
<path d="M4327 779 c7 -7 15 -10 18 -7 3 3 -2 9 -12 12 -14 6 -15 5 -6 -5z"/>
<path d="M976 763 c-4 -5 -11 -8 -15 -8 -3 0 -19 -10 -35 -22 -31 -25 -28 -30
7 -12 32 17 71 49 60 49 -5 0 -13 -3 -17 -7z"/>
<path d="M4348 733 c7 -3 16 -2 19 1 4 3 -2 6 -13 5 -11 0 -14 -3 -6 -6z"/>
<path d="M867 705 c3 -8 9 -12 14 -9 12 7 11 11 -5 17 -10 4 -13 1 -9 -8z"/>
<path d="M2220 285 c0 -22 29 -75 40 -75 6 0 18 -16 27 -35 9 -19 20 -35 25
-35 4 0 11 -1 15 -2 3 -2 7 4 9 12 2 8 6 26 10 39 5 16 4 22 -3 18 -6 -4 -16
-1 -22 7 -7 8 -27 17 -47 20 -19 4 -34 12 -33 19 3 27 -2 47 -11 47 -5 0 -10
-7 -10 -15z"/>
</g>
</svg>
